<svg xmlns="http://www.w3.org/2000/svg" width="256" height="256" viewBox="0 0 100 100"><path d="M53.83 63q-.64.45-1.67.81-1.03.36-2.3.36-1.44 0-2.56-.45-1.13-.45-1.58-1.44-4.86-10.08-8.36-18.45-3.52-8.37-5.68-13.86h-.36q-.27 6.75-.58 12.56-.31 5.8-.68 11.34-.36 5.53-.72 11.2-.36 5.67-.71 12.15-.54.19-1.4.36-.85.19-1.85.19-1.97 0-2.79-.82-.8-.81-.8-2.34 0-.9.13-3.87t.4-7.2q.27-4.23.59-9.36.32-5.13.72-10.44.41-5.31.81-10.44.4-5.13.76-9.36.73-.63 2.07-1.17 1.36-.54 3.07-.54 4.14 0 5.75 3.33 1.71 3.51 3.47 7.43 1.75 3.91 3.51 7.96 1.76 4.05 3.42 8.01 1.67 3.96 3.2 7.56h.36q1.98-4.77 3.95-9.4 1.98-4.64 3.88-8.96 1.89-4.32 3.59-8.1 1.72-3.78 3.06-6.93.81-.45 2.08-.67 1.25-.23 2.33-.23 4.23 0 4.86 2.88.36 1.62.81 5.36.45 3.73.91 8.59.45 4.86.85 10.44l.77 10.76q.36 5.18.63 9.54.26 4.36.45 6.88-1.63 1.09-3.78 1.09-1.36 0-2.39-.68t-1.22-2.48q-.44-6.57-.8-13.05-.37-6.48-.68-12.33-.32-5.85-.58-10.75-.27-4.91-.46-8.33h-.36q-.98 2.52-2.29 5.67-1.3 3.15-3.06 7.11-1.76 3.96-3.91 8.96-2.16 4.99-4.86 11.11Z" fill="#d0021b"/></svg>